<?xml version="1.0" encoding="utf-8"?>
<!-- Generator: Adobe Illustrator 22.0.0, SVG Export Plug-In . SVG Version: 6.00 Build 0)  -->
<svg version="1.1" id="图层_1" xmlns="http://www.w3.org/2000/svg" xmlns:xlink="http://www.w3.org/1999/xlink" x="0px" y="0px"
	 viewBox="0 0 20 20" style="enable-background:new 0 0 20 20;" xml:space="preserve">
<title>Combined Shape Copy 5</title>
<desc>Created with Sketch.</desc>
<g id="_x2D_切图" transform="translate(-553.000000, -256.000000)">
	<path id="Combined-Shape-Copy-5" d="M561.6,266l-7.8-7.8c-0.4-0.4-0.4-1,0-1.4s1-0.4,1.4,0l7.8,7.8l7.8-7.8c0.4-0.4,1-0.4,1.4,0
		s0.4,1,0,1.4l-7.8,7.8l7.8,7.8c0.4,0.4,0.4,1,0,1.4s-1,0.4-1.4,0l-7.8-7.8l-7.8,7.8c-0.4,0.4-1,0.4-1.4,0s-0.4-1,0-1.4L561.6,266z"
		/>
</g>
</svg>
