<?xml version="1.0" standalone="no"?><!DOCTYPE svg PUBLIC "-//W3C//DTD SVG 1.1//EN" "http://www.w3.org/Graphics/SVG/1.1/DTD/svg11.dtd"><svg t="1591707566053" class="icon" viewBox="0 0 1024 1024" version="1.1" xmlns="http://www.w3.org/2000/svg" p-id="10507" xmlns:xlink="http://www.w3.org/1999/xlink" width="200" height="200"><defs><style type="text/css"></style></defs><path d="M512 28.054795c-273.534247 0-490.958904 217.424658-490.958904 490.958904 0 273.534247 217.424658 490.958904 490.958904 490.958904s490.958904-217.424658 490.958904-490.958904C1002.958904 252.493151 785.534247 28.054795 512 28.054795L512 28.054795zM512 939.835616c-231.452055 0-420.821918-189.369863-420.821918-420.821918s189.369863-413.808219 420.821918-413.808219c231.452055 0 420.821918 189.369863 420.821918 413.808219C925.808219 750.465753 743.452055 939.835616 512 939.835616L512 939.835616zM512 420.821918C490.958904 420.821918 469.917808 441.863014 469.917808 462.90411l0 287.561644c0 21.041096 21.041096 42.082192 42.082192 42.082192 21.041096 0 42.082192-21.041096 42.082192-42.082192L554.082192 462.90411C554.082192 441.863014 540.054795 420.821918 512 420.821918L512 420.821918zM512 245.479452c-28.054795 0-56.109589 21.041096-56.109589 56.109589 0 28.054795 21.041096 56.109589 56.109589 56.109589s56.109589-21.041096 56.109589-56.109589C568.109589 273.534247 540.054795 245.479452 512 245.479452L512 245.479452zM652.273973 245.479452" p-id="10508"></path></svg>