<?xml version="1.0" standalone="no"?><!DOCTYPE svg PUBLIC "-//W3C//DTD SVG 1.1//EN" "http://www.w3.org/Graphics/SVG/1.1/DTD/svg11.dtd"><svg t="1591705400884" class="icon" viewBox="0 0 1024 1024" version="1.1" xmlns="http://www.w3.org/2000/svg" p-id="2968" xmlns:xlink="http://www.w3.org/1999/xlink" width="200" height="200"><defs><style type="text/css"></style></defs><path d="M823.04 823.04A439.893333 439.893333 0 1 1 341.333333 106.666667a439.893333 439.893333 0 0 1 481.706667 716.373333zM512 0a512 512 0 1 0 512 512A512 512 0 0 0 512 0z m209.493333 305.493333l-327.68 328.533334-85.333333-149.333334a35.84 35.84 0 0 0-62.293333 35.84l108.8 190.293334a36.266667 36.266667 0 0 0 31.146666 18.346666 35.84 35.84 0 0 0 17.493334-3.84 37.546667 37.546667 0 0 0 8.533333-6.826666l360.106667-361.813334a35.84 35.84 0 0 0-50.773334-51.2z" p-id="2969"></path></svg>
